<svg id="Capa_1" enable-background="new 0 0 512.101 512.101" height="512" viewBox="0 0 512.101 512.101" width="512" xmlns="http://www.w3.org/2000/svg"><g><path d="m344.652 187.762-80-56c-9.906-6.935-23.602.145-23.602 12.288v83.973l-48.68-32.453c-6.892-4.595-16.205-2.733-20.801 4.16-4.595 6.893-2.732 16.206 4.161 20.801l53.279 35.52-53.279 35.52c-6.893 4.595-8.756 13.908-4.161 20.801 4.61 6.915 13.929 8.743 20.801 4.16l48.68-32.453v83.973c0 12.118 13.679 19.237 23.602 12.288l80-56c8.518-5.961 8.53-18.607 0-24.576l-62.444-43.712 62.444-43.712c8.518-5.962 8.53-18.609 0-24.578zm-34.759 124.288-38.843 27.19v-54.38zm-38.843-84.809v-54.381l38.843 27.19z"/><path d="m436.863 75.238c-100.3-100.3-261.291-100.334-361.625 0-100.301 100.3-100.335 261.291 0 361.625 100.301 100.301 261.291 100.333 361.625 0 100.3-100.301 100.333-261.292 0-361.625zm-180.813 406.812c-124.617 0-226-101.383-226-226s101.383-226 226-226 226 101.383 226 226-101.382 226-226 226z"/></g></svg>