<?xml version="1.0" encoding="iso-8859-1"?>
<!-- Generator: Adobe Illustrator 19.0.0, SVG Export Plug-In . SVG Version: 6.00 Build 0)  -->
<svg version="1.1" id="Capa_1" xmlns="http://www.w3.org/2000/svg" xmlns:xlink="http://www.w3.org/1999/xlink" x="0px" y="0px"
	 viewBox="0 0 512 512" style="enable-background:new 0 0 512 512;" xml:space="preserve">
<path style="fill:#FF5A5A;" d="M448,458.027H64V54c0-24.301,19.699-44,44-44h340V458.027z"/>
<circle style="fill:#78D2FA;" cx="256" cy="188" r="124"/>
<g>
	<path style="fill:#A5DC69;" d="M333.496,91.204h-14.371c-15.992,0-28.956,12.964-28.956,28.956c0,5.94-4.815,10.755-10.755,10.755
		c-10.509,0-19.028,8.519-19.028,19.028c0,12.793,10.371,23.165,23.165,23.165h95.556
		C375.15,140.056,358.194,111.003,333.496,91.204z"/>
	<path style="fill:#A5DC69;" d="M137.651,150.891h46.372c7.895,0,14.295-6.4,14.295-14.295v-0.587c0-7.895,6.4-14.295,14.295-14.295
		s14.295-6.4,14.295-14.295v-3.127c0-7.895-6.4-14.295-14.295-14.295h-32.582C160.287,105.325,145.297,126.482,137.651,150.891z"/>
	<path style="fill:#A5DC69;" d="M282.377,173.107h-55.66c-12.07,0-21.855,9.785-21.855,21.855v9.623
		c0,12.07,9.785,21.855,21.855,21.855l0,0c9.259,0,16.766,7.506,16.766,16.766v60.569l20.493-22.674
		c2.849-3.152,6.899-4.951,11.148-4.951l0,0c8.299,0,15.027-6.728,15.027-15.027v-21.732c0-5.777,4.683-10.46,10.46-10.46h4.828
		c5.777,0,10.46-4.683,10.46-10.46v-11.844c0-5.777-4.683-10.46-10.46-10.46l0,0c-5.777,0-10.46-4.683-10.46-10.46l0,0
		C294.978,178.749,289.336,173.107,282.377,173.107z"/>
</g>
<path d="M64,236.51c-2.63,0-5.21-1.07-7.07-2.93c-1.86-1.86-2.93-4.44-2.93-7.07c0-2.64,1.07-5.21,2.93-7.07
	c1.86-1.87,4.44-2.93,7.07-2.93c2.63,0,5.21,1.06,7.07,2.93c1.86,1.86,2.93,4.44,2.93,7.07s-1.07,5.21-2.93,7.07
	S66.63,236.51,64,236.51z"/>
<path style="fill:#FFFFFF;" d="M448,414.054H107.973C83.687,414.054,64,433.742,64,458.027l0,0C64,482.313,83.687,502,107.973,502
	H448V414.054z"/>
<path d="M353.3,424.05c-2.63,0-5.21-1.06-7.07-2.92c-1.86-1.86-2.93-4.44-2.93-7.08c0-2.63,1.07-5.21,2.93-7.07
	c1.87-1.86,4.44-2.93,7.07-2.93c2.64,0,5.21,1.07,7.07,2.93c1.87,1.86,2.93,4.44,2.93,7.07c0,2.64-1.06,5.22-2.93,7.08
	C358.51,422.99,355.94,424.05,353.3,424.05z"/>
<path d="M448,0H107.973C78.212,0,54,24.212,54,53.973v124.521c0,5.523,4.477,10,10,10s10-4.477,10-10V53.973
	C74,35.24,89.24,20,107.973,20H438v384.054h-44.333c-5.523,0-10,4.477-10,10s4.477,10,10,10H438v23.973H107.973
	c-5.523,0-10,4.477-10,10s4.477,10,10,10H438V492H107.973C89.24,492,74,476.76,74,458.027c0-18.732,15.24-33.973,33.973-33.973
	H304.5c5.523,0,10-4.477,10-10s-4.477-10-10-10H107.973c-12.866,0-24.689,4.532-33.973,12.074V265.75c0-5.523-4.477-10-10-10
	s-10,4.477-10,10v192.277C54,487.788,78.212,512,107.973,512H448c5.523,0,10-4.477,10-10V10C458,4.477,453.523,0,448,0z"/>
<path d="M256,54c-73.888,0-134,60.112-134,134s60.112,134,134,134s134-60.112,134-134S329.888,54,256,54z M367.255,163.107h-83.704
	c-7.259,0-13.165-5.906-13.165-13.165c0-4.978,4.05-9.028,9.028-9.028c11.444,0,20.755-9.311,20.755-20.755
	c0-10.452,8.503-18.956,18.956-18.956h10.695C348.34,116.979,361.766,138.561,367.255,163.107z M183.61,99.998h29.002
	c2.368,0,4.295,1.927,4.295,4.295v3.127c0,2.368-1.927,4.295-4.295,4.295c-13.396,0-24.295,10.898-24.295,24.295v0.587
	c0,2.368-1.927,4.295-4.295,4.295h-31.826C159.451,124.97,170.262,110.998,183.61,99.998z M233.483,299.762
	C181.371,289.28,142,243.153,142,188c0-9.339,1.137-18.416,3.266-27.109h38.757c13.396,0,24.295-10.898,24.295-24.295v-0.587
	c0-2.368,1.927-4.295,4.295-4.295c13.396,0,24.295-10.898,24.295-24.295v-3.127c0-11.597-8.17-21.317-19.056-23.72
	C229.786,76.322,242.626,74,256,74c16.988,0,33.117,3.741,47.615,10.434c-13.783,6.007-23.446,19.756-23.446,35.726
	c0,0.416-0.339,0.755-0.755,0.755c-16.006,0-29.028,13.022-29.028,29.028c0,4.676,0.978,9.126,2.732,13.165h-26.401
	c-17.565,0-31.855,14.291-31.855,31.855v9.623c0,17.565,14.291,31.855,31.856,31.855c3.73,0,6.766,3.035,6.766,6.766v56.555H233.483
	z M256.556,274.397l-3.073,3.4v-34.59c0-14.759-12.007-26.766-26.766-26.766c-6.537,0-11.855-5.318-11.855-11.855v-9.623
	c0-6.537,5.318-11.855,11.855-11.855h55.66c1.434,0,2.601,1.167,2.601,2.601c0,11.282,9.178,20.46,20.46,20.46
	c0.253,0,0.46,0.206,0.46,0.459v11.845c0,0.253-0.207,0.46-0.46,0.46h-4.828c-11.282,0-20.46,9.178-20.46,20.459v21.733
	c0,2.771-2.255,5.026-5.026,5.026C268.06,266.151,261.292,269.156,256.556,274.397z M258.596,301.967l12.798-14.16
	c0.951-1.053,2.311-1.656,3.729-1.656c13.8,0,25.026-11.227,25.026-25.026v-21.733c0-0.253,0.207-0.459,0.46-0.459h4.828
	c11.282,0,20.46-9.178,20.46-20.46v-11.845c0-11.281-9.178-20.459-20.46-20.459c-0.253,0-0.46-0.207-0.46-0.46
	c0-0.88-0.056-1.747-0.154-2.601h65.065C369.957,184.731,370,186.36,370,188C370,249.992,320.261,300.582,258.596,301.967z"/>
<path d="M304.5,370h-97c-5.523,0-10-4.477-10-10s4.477-10,10-10h97c5.523,0,10,4.477,10,10S310.023,370,304.5,370z"/>
<g>
</g>
<g>
</g>
<g>
</g>
<g>
</g>
<g>
</g>
<g>
</g>
<g>
</g>
<g>
</g>
<g>
</g>
<g>
</g>
<g>
</g>
<g>
</g>
<g>
</g>
<g>
</g>
<g>
</g>
</svg>
