<svg height="512" viewBox="0 0 512 512" width="512" xmlns="http://www.w3.org/2000/svg" xmlns:xlink="http://www.w3.org/1999/xlink"><linearGradient id="linear-gradient" gradientUnits="userSpaceOnUse" x1="9.339" x2="375.966" y1="439.445" y2="72.817"><stop offset="0" stop-color="#e3dede"/><stop offset="1" stop-color="#fff"/></linearGradient><linearGradient id="New_Gradient_Swatch_3" gradientUnits="userSpaceOnUse" x1="3.339" x2="369.966" y1="54.817" y2="421.444"><stop offset=".011" stop-color="#606082"/><stop offset="1" stop-color="#83839e"/></linearGradient><linearGradient id="New_Gradient_Swatch_22" gradientTransform="translate(-2244.565 3677.783)" gradientUnits="userSpaceOnUse" x1="2150.236" x2="2516.863" y1="-3915.969" y2="-3549.342"><stop offset=".011" stop-color="#dcdce3"/><stop offset="1" stop-color="#ededf1"/></linearGradient><linearGradient id="New_Gradient_Swatch_22-2" x1="2351.571" x2="2718.199" xlink:href="#New_Gradient_Swatch_22" y1="-3311.963" y2="-2945.335"/><linearGradient id="New_Gradient_Swatch_5" gradientUnits="userSpaceOnUse" x1="152" x2="392" y1="252" y2="252"><stop offset=".011" stop-color="#f8c73f"/><stop offset="1" stop-color="#fada7f"/></linearGradient><linearGradient id="New_Gradient_Swatch_21" gradientUnits="userSpaceOnUse" x1="216" x2="328" y1="232" y2="232"><stop offset=".011" stop-color="#fdecbf"/><stop offset="1" stop-color="#fef9ea"/></linearGradient><g id="_11-alarm" data-name="11-alarm"><g id="linear_color" data-name="linear color"><g id="color"><rect fill="url(#linear-gradient)" height="480" rx="16" width="272" x="56.652" y="16.13"/><path d="m56.652 72.087h272v344.087h-272z" fill="url(#New_Gradient_Swatch_3)"/><path d="m312.652 16.13h-240a16 16 0 0 0 -16 16v39.957h272v-39.957a16 16 0 0 0 -16-16z" fill="url(#New_Gradient_Swatch_22)"/><path d="m56.652 480.13a16 16 0 0 0 16 16h240a16 16 0 0 0 16-16v-63.956h-272z" fill="url(#New_Gradient_Swatch_22-2)"/></g><path d="m380 344h-188l-40 32v-236a12 12 0 0 1 12-12h216a12 12 0 0 1 12 12v192a12 12 0 0 1 -12 12z" fill="url(#New_Gradient_Swatch_5)"/><path d="m312 272v-38.059a24 24 0 0 0 -7.029-16.97l-16.971-16.971v-8a16 16 0 0 0 -16-16 16 16 0 0 0 -16 16v8l-16.971 16.971a24 24 0 0 0 -7.029 16.97v38.059l-16 16h112z" fill="url(#New_Gradient_Swatch_21)"/><path d="m218.7 444.152h-50.961a12 12 0 1 0 0 24h50.961a12 12 0 0 0 0-24z"/><path d="m430.138 208.405a12 12 0 0 0 .009 16.97 19.945 19.945 0 0 1 0 28.229 12 12 0 1 0 16.961 16.979 43.942 43.942 0 0 0 0-62.187 12 12 0 0 0 -16.97.009z"/><path d="m481.049 174.49a12 12 0 0 0 -16.961 16.979 67.859 67.859 0 0 1 0 96.041 12 12 0 0 0 16.962 16.98 91.858 91.858 0 0 0 0-130z"/><path d="m380 116h-39.35v-83.87a28.031 28.031 0 0 0 -28-28h-240a28.031 28.031 0 0 0 -28 28v448a28.031 28.031 0 0 0 28 28h240a28.032 28.032 0 0 0 28-28v-124.13h39.35a24.027 24.027 0 0 0 24-24v-192a24.027 24.027 0 0 0 -24-24zm-307.35-87.87h240a4 4 0 0 1 4 4v27.957h-248v-27.957a4 4 0 0 1 4-4zm240 456h-240a4 4 0 0 1 -4-4v-51.956h248v51.956a4.005 4.005 0 0 1 -4 4zm4-79.956h-248v-320.087h248v31.913h-152.65a24.027 24.027 0 0 0 -24 24v236a12 12 0 0 0 19.5 9.371l36.709-29.371h120.441zm63.35-72.174h-188a12 12 0 0 0 -7.5 2.629l-20.5 16.4v-211.029h216l.015 192z"/><path d="m324 267.029v-33.088a35.767 35.767 0 0 0 -10.544-25.456l-13.456-13.456v-3.029a28 28 0 0 0 -56 0v3.029l-13.456 13.456a35.767 35.767 0 0 0 -10.544 25.456v33.088l-12.485 12.486a12 12 0 0 0 8.485 20.485h112a12 12 0 0 0 8.485-20.485zm-80.687 8.971a11.977 11.977 0 0 0 .687-4v-38.059a11.919 11.919 0 0 1 3.515-8.485l16.97-16.971a12 12 0 0 0 3.515-8.485v-8a4 4 0 0 1 8 0v8a12 12 0 0 0 3.515 8.485l16.97 16.971a11.919 11.919 0 0 1 3.515 8.485v38.059a11.977 11.977 0 0 0 .687 4z"/></g></g></svg>