<?xml version="1.0" standalone="no"?>
<!DOCTYPE svg PUBLIC "-//W3C//DTD SVG 20010904//EN"
 "http://www.w3.org/TR/2001/REC-SVG-20010904/DTD/svg10.dtd">
<svg version="1.0" xmlns="http://www.w3.org/2000/svg"
 width="1002.000000pt" height="1280.000000pt" viewBox="0 0 1002.000000 1280.000000"
 preserveAspectRatio="xMidYMid meet">
<metadata>
Created by potrace 1.15, written by Peter Selinger 2001-2017
</metadata>
<g transform="translate(0.000000,1280.000000) scale(0.100000,-0.100000)"
fill="#9c27b0" stroke="none">
<path d="M5550 12793 c-105 -8 -433 -56 -668 -97 -222 -39 -256 -43 -283 -32
-26 11 -43 11 -98 -1 -237 -48 -453 -122 -634 -215 -108 -56 -148 -112 -162
-230 l-7 -58 -33 44 c-43 55 -113 100 -190 121 l-60 17 -120 -37 c-161 -49
-302 -104 -470 -185 -195 -92 -232 -139 -206 -260 6 -28 11 -52 11 -53 0 -1
-17 -2 -38 -2 -68 1 -306 -112 -482 -230 -228 -152 -408 -353 -487 -547 -178
-436 419 -1513 1532 -2763 346 -390 881 -935 1283 -1309 142 -133 191 -184
187 -197 -9 -27 282 -296 560 -518 728 -582 1420 -921 2045 -1002 136 -18 423
-15 542 5 54 9 102 16 107 16 10 0 52 -67 461 -740 428 -706 724 -1209 812
-1385 80 -158 144 -345 178 -520 83 -432 16 -874 -195 -1295 -147 -293 -274
-423 -540 -555 -270 -134 -543 -195 -865 -195 -232 1 -437 35 -630 107 -256
95 -479 237 -1058 671 -470 352 -715 513 -996 654 -446 224 -817 323 -1206
322 -357 -1 -584 -57 -1124 -279 -413 -170 -539 -205 -736 -205 -125 0 -220
18 -329 61 -421 167 -781 615 -931 1157 -28 102 -74 341 -67 349 2 2 23 -4 47
-12 61 -21 189 -51 300 -70 108 -19 447 -31 536 -20 l59 7 -37 19 c-65 33
-148 49 -338 65 -260 21 -346 36 -495 86 -92 31 -91 29 -78 161 14 135 47 289
115 527 51 180 184 587 256 787 23 62 38 113 34 113 -4 1 -24 15 -45 33 l-37
32 58 145 59 145 64 -2 c119 -3 286 16 372 43 270 86 480 266 602 517 76 157
90 224 90 427 0 206 -14 272 -95 435 -229 464 -778 672 -1259 476 -207 -84
-402 -265 -505 -468 -61 -122 -106 -308 -106 -441 0 -318 173 -645 432 -816
l57 -38 -13 -32 c-7 -17 -34 -86 -61 -153 l-49 -123 -62 0 c-109 0 -100 11
-196 -257 -198 -548 -321 -1005 -350 -1293 -26 -259 27 -610 142 -943 142
-413 393 -791 688 -1038 337 -281 668 -422 1027 -436 299 -11 529 36 1000 207
363 132 629 219 731 239 349 71 690 13 1089 -183 277 -136 445 -248 990 -656
538 -403 718 -522 970 -645 233 -114 427 -174 700 -217 203 -32 577 -31 785 1
390 60 738 187 1013 371 124 83 292 239 370 343 177 237 360 625 437 924 50
194 64 316 64 538 0 419 -95 770 -343 1270 -135 272 -246 462 -751 1290 -238
391 -440 722 -449 737 -15 26 -15 27 14 49 17 12 77 70 135 128 438 443 625
1186 534 2131 -22 235 -67 513 -110 683 l-16 65 -74 11 c-41 6 -83 11 -94 11
-14 0 -24 18 -45 83 -77 232 -272 730 -438 1112 -247 572 -561 1150 -856 1575
-347 502 -640 823 -1166 1278 -65 57 -191 117 -285 136 -135 27 -374 40 -520
29z m409 -64 c105 -11 219 -45 288 -86 60 -35 386 -326 552 -493 614 -617
1157 -1490 1622 -2608 157 -377 359 -907 359 -942 0 -5 -12 -12 -27 -16 -74
-16 -137 -37 -194 -64 -35 -16 -64 -28 -65 -27 -1 1 -32 88 -69 192 -465 1324
-1006 2391 -1572 3103 -256 322 -554 600 -758 710 l-70 37 -135 -1 c-74 -1
-211 -11 -305 -23 -142 -19 -607 -94 -722 -117 -26 -5 -33 -3 -33 9 0 33 -48
124 -87 165 -31 33 -36 43 -24 47 60 18 630 105 846 129 57 6 281 -2 394 -15z
m-1330 -137 c14 -10 57 -70 95 -133 l68 -114 -4 -77 c-4 -58 -10 -83 -24 -99
-55 -63 -435 -272 -597 -328 -156 -55 -250 -37 -328 61 -74 94 -106 276 -66
380 10 26 34 61 53 77 58 51 274 145 454 197 233 67 298 74 349 36z m1436
-136 c145 -72 482 -377 680 -616 490 -593 957 -1436 1373 -2480 145 -365 338
-903 325 -907 -37 -14 -37 -17 -5 -185 79 -399 109 -778 91 -1116 -43 -772
-359 -1258 -884 -1357 -100 -19 -314 -17 -415 5 -437 91 -878 313 -1406 707
-224 167 -567 457 -678 571 -44 46 -39 46 -180 11 l-79 -20 -51 49 c-28 26
-123 115 -211 197 -450 419 -973 944 -1334 1339 -796 875 -1262 1569 -1356
2020 -32 158 -16 262 57 372 140 209 375 366 681 455 117 34 112 34 157 -2 40
-32 47 -34 114 -32 141 3 494 86 692 164 126 49 134 60 134 190 l0 82 41 -47
c57 -65 107 -88 199 -94 65 -3 87 0 165 28 174 61 511 243 618 334 38 32 38
32 44 123 l6 91 61 11 c552 99 883 143 1029 136 59 -2 91 -10 132 -29z m-2549
-201 c124 -55 185 -169 200 -375 9 -125 2 -156 -44 -179 -106 -54 -397 -134
-622 -171 -109 -18 -136 -20 -161 -10 -45 19 -118 107 -131 159 -6 24 -24 58
-39 76 -36 41 -63 140 -51 187 12 46 65 84 218 153 235 106 507 198 554 188
14 -3 48 -15 76 -28z m-887 -506 c23 -8 39 -25 56 -60 48 -94 32 -119 -106
-165 -278 -93 -500 -252 -628 -448 -63 -97 -81 -156 -81 -262 0 -628 992
-1920 2702 -3519 134 -125 244 -230 245 -234 2 -3 -22 -35 -53 -71 -30 -36
-67 -86 -82 -112 -15 -27 -30 -47 -34 -45 -19 7 -461 430 -718 687 -1111 1113
-1892 2143 -2184 2880 -72 183 -100 304 -100 440 -1 112 0 117 36 192 136 285
422 529 819 696 84 36 85 36 128 21z m136 -189 c3 -5 -1 -10 -10 -10 -9 0 -13
5 -10 10 3 6 8 10 10 10 2 0 7 -4 10 -10z m6202 -3046 c18 -5 25 -21 42 -98
78 -345 130 -860 117 -1166 -28 -643 -172 -1094 -464 -1453 -59 -73 -173 -182
-234 -226 -21 -14 -36 -32 -33 -39 2 -7 197 -329 433 -715 613 -1004 665
-1093 811 -1392 167 -339 263 -627 306 -909 82 -550 -62 -1120 -421 -1669
-475 -726 -1794 -1017 -2750 -607 -277 119 -490 257 -1109 721 -525 393 -784
560 -1055 679 -278 123 -544 179 -795 167 -208 -10 -363 -50 -800 -209 -630
-229 -831 -276 -1140 -265 -226 9 -395 53 -600 157 -677 342 -1133 1063 -1216
1920 -24 250 11 484 141 935 88 308 269 831 293 848 7 4 57 6 112 4 123 -6
246 -45 334 -107 l59 -42 -25 -66 c-39 -105 -180 -524 -219 -656 -100 -333
-150 -552 -161 -705 -5 -79 -8 -91 -22 -86 -9 4 -65 9 -126 11 l-110 5 65 -35
c36 -19 95 -47 131 -61 l65 -25 18 -116 c83 -558 373 -1056 774 -1328 208
-141 377 -198 587 -197 212 1 349 38 775 214 387 159 523 203 777 248 154 27
447 30 601 5 406 -65 799 -221 1236 -493 184 -114 336 -221 692 -489 727 -547
1012 -692 1458 -745 127 -15 441 -6 561 15 355 64 647 195 854 383 76 68 177
219 259 385 217 442 278 882 187 1336 -63 309 -152 496 -590 1232 -310 520
-850 1408 -870 1428 -11 12 -25 11 -87 -1 -367 -76 -809 -19 -1276 165 -562
221 -1206 654 -1791 1204 l-84 79 18 35 c9 19 42 70 73 113 45 62 65 82 106
101 51 24 166 56 201 56 10 0 54 -35 99 -78 185 -177 477 -415 734 -599 471
-337 905 -548 1287 -628 108 -23 347 -31 439 -16 398 68 706 365 845 816 60
195 85 341 102 604 17 256 -8 639 -62 956 -22 131 -47 259 -55 279 -6 16 59
52 181 98 97 37 103 38 200 33 55 -2 110 -7 122 -11z m-7542 -1190 c292 -56
555 -269 669 -542 63 -149 71 -191 71 -372 0 -181 -8 -223 -71 -372 -81 -195
-248 -370 -449 -471 -76 -38 -210 -75 -310 -86 -105 -11 -228 -4 -221 13 52
123 105 261 100 265 -3 3 -20 11 -37 18 -30 11 -30 12 13 5 25 -4 83 -6 130
-6 327 5 602 257 639 585 23 210 -42 394 -194 546 -140 139 -301 200 -500 190
-176 -9 -311 -70 -435 -196 -127 -129 -190 -283 -190 -460 1 -255 123 -462
352 -592 29 -17 46 -28 37 -26 -84 27 -161 48 -163 45 -2 -2 -24 -57 -50 -123
-26 -66 -51 -124 -56 -129 -12 -12 -137 82 -203 154 -114 122 -197 281 -233
441 -25 111 -23 301 4 412 66 268 227 479 465 607 201 109 398 138 632 94z m9
-289 c175 -37 337 -165 414 -326 48 -101 62 -162 62 -277 0 -365 -322 -648
-683 -602 -359 45 -605 397 -522 745 43 185 161 331 334 413 126 60 258 76
395 47z m-401 -1255 c72 -22 132 -42 134 -43 1 -2 -19 -57 -46 -123 -46 -115
-49 -119 -77 -117 -57 5 -244 76 -244 94 0 9 77 207 86 221 7 11 3 12 147 -32z
m-103 -305 c47 -15 93 -30 102 -34 14 -5 10 -23 -37 -140 -30 -73 -56 -135
-58 -137 -2 -2 -33 11 -69 30 -39 20 -94 39 -137 46 -40 7 -71 16 -69 20 2 5
28 69 58 143 l55 135 35 -18 c19 -10 73 -30 120 -45z"/>
<path d="M1139 6947 c-177 -60 -303 -191 -356 -370 -20 -68 -19 -210 2 -283
54 -190 207 -334 401 -380 180 -42 395 27 514 165 23 25 59 82 81 126 75 152
75 317 -2 474 -62 125 -203 240 -344 277 -80 22 -218 17 -296 -9z m303 -47
c80 -24 171 -83 222 -141 53 -61 102 -167 116 -251 43 -255 -142 -506 -407
-550 -228 -38 -465 110 -534 333 -69 221 37 475 243 580 100 51 250 63 360 29z"/>
<path d="M256 10163 c16 -15 88 -77 160 -138 184 -156 327 -302 425 -435 112
-150 413 -586 602 -870 152 -229 169 -254 147 -210 -116 228 -533 899 -672
1083 -145 192 -417 432 -648 571 l-45 27 31 -28z"/>
</g>
</svg>
